<svg version="1.1" id="Layer_1" xmlns="http://www.w3.org/2000/svg" xmlns:xlink="http://www.w3.org/1999/xlink" x="0px" y="0px"
	 width="100%" viewBox="0 0 1024 1024" enable-background="new 0 0 1024 1024" xml:space="preserve">
<path fill="#000000" opacity="1.000000" stroke="none" 
	d="
M216.084915,338.052612 
	C235.148834,338.647552 253.327499,341.139526 269.961487,350.307892 
	C287.158600,359.786652 295.921173,374.087280 296.495911,393.996582 
	C297.239899,419.766998 283.861023,436.832153 263.913025,450.383057 
	C256.204041,455.619873 247.738342,459.480530 238.938293,464.076050 
	C244.886154,465.726776 250.306412,467.066895 255.622116,468.739319 
	C268.133057,472.675507 279.695831,478.361450 289.549591,487.252350 
	C302.008026,498.493469 306.555511,512.799072 305.547791,529.033508 
	C303.390747,563.784546 283.361298,586.895630 255.214157,604.156067 
	C233.636398,617.387939 209.557587,623.868896 184.861755,628.354980 
	C165.298187,631.908752 145.575729,633.036377 125.751839,632.300476 
	C111.278435,631.763184 96.998955,629.571350 82.952705,626.002625 
	C81.578888,625.653564 79.982880,625.384399 79.107460,623.916748 
	C79.300697,621.202332 81.674126,620.546387 83.348770,619.398682 
	C95.308929,611.201904 108.932480,607.945251 123.007187,605.550537 
	C146.385178,601.572937 169.968445,598.488953 192.770203,591.638428 
	C211.079041,586.137756 228.630280,578.892761 243.198685,566.125305 
	C254.993988,555.788086 264.337769,543.877075 263.758057,526.897583 
	C263.337219,514.570618 256.667786,505.907196 246.929825,499.537445 
	C231.961212,489.746338 215.104797,487.511536 197.645889,488.770172 
	C188.039520,489.462708 178.634674,491.509918 169.576492,494.013062 
	C167.649872,492.742798 168.077499,491.304932 168.483475,489.816711 
	C170.538269,482.284210 172.677597,474.771729 174.541183,467.191742 
	C175.272858,464.215759 176.837112,463.005798 179.758362,462.141754 
	C199.480606,456.308075 218.608032,449.079956 235.078339,436.288910 
	C241.578613,431.240723 247.077942,425.250458 250.961700,417.895325 
	C260.290558,400.228180 253.041702,381.340912 234.353012,374.272217 
	C220.114777,368.886871 205.508347,369.475891 191.019348,372.050354 
	C138.119827,381.449799 90.458504,403.004089 47.405037,434.977478 
	C46.605324,435.571381 45.790718,436.151398 44.939541,436.665894 
	C44.705547,436.807281 44.313618,436.687378 43.995766,436.687378 
	C44.654896,425.288757 85.206100,388.040710 118.486221,367.562164 
	C148.353409,349.183685 180.553467,339.028809 216.084915,338.052612 
z"/>
<path fill="#000000" opacity="1.000000" stroke="none" 
	d="
M887.997192,613.378784 
	C887.916443,616.393860 886.151245,616.574280 884.167419,616.591431 
	C875.006775,616.670532 865.843201,616.677307 856.687561,616.944153 
	C852.722107,617.059631 851.549622,615.453979 851.585876,611.627075 
	C851.740601,595.299072 851.438049,578.965210 851.706909,562.640198 
	C851.989624,545.470032 850.924805,528.342224 850.567871,511.194397 
	C850.132507,490.278229 830.921814,484.078369 816.621155,489.162903 
	C803.379333,493.870911 797.480164,503.801941 796.333679,517.234131 
	C794.204102,542.182373 795.862366,567.178345 795.367249,592.147217 
	C795.238403,598.643188 795.068848,605.159668 795.438171,611.637024 
	C795.709778,616.400574 793.836304,617.621521 789.394897,617.462036 
	C781.240479,617.169312 773.059570,617.141541 764.907043,617.454102 
	C760.307495,617.630493 758.879211,616.093994 758.902344,611.492371 
	C759.063171,579.500732 758.980896,547.507935 758.977722,515.515503 
	C758.976135,499.352661 759.136902,483.187286 758.882629,467.028442 
	C758.803101,461.975006 760.441162,460.325226 765.495239,460.554504 
	C773.975891,460.939270 782.487793,460.751190 790.983765,460.621948 
	C794.184387,460.573273 795.532715,461.730225 795.373779,464.980774 
	C795.203796,468.456146 795.335388,471.946289 795.335388,477.420105 
	C808.153381,463.432709 822.347900,455.595612 840.330994,456.637970 
	C858.051941,457.665100 872.399841,464.605927 882.240540,481.659485 
	C884.902344,478.495392 886.773010,475.953766 888.960083,473.722107 
	C906.548645,455.775208 932.284790,451.265106 954.602051,462.665588 
	C970.239441,470.653809 978.672668,483.694122 979.345093,501.410583 
	C980.729370,537.882935 979.541016,574.372314 980.027283,610.850342 
	C980.080505,614.839478 978.879272,616.570068 974.611389,616.437927 
	C966.288025,616.180237 957.943298,616.149048 949.622681,616.447876 
	C944.984619,616.614441 943.494995,614.946533 943.653625,610.393005 
	C944.645386,581.921204 944.875427,553.436279 944.645508,524.948547 
	C944.591675,518.286987 943.856812,511.656250 942.478333,505.165344 
	C939.518982,491.230347 923.991150,483.927887 908.587830,488.921692 
	C896.329224,492.895935 890.955139,502.385132 888.434998,514.073242 
	C887.524475,518.296265 887.281067,522.624146 887.323853,526.981873 
	C887.605408,555.636780 887.794495,584.292664 887.997192,613.378784 
z"/>
<path fill="#000000" opacity="1.000000" stroke="none" 
	d="
M465.626587,616.416016 
	C455.881622,616.415527 446.597046,616.415527 436.728485,616.415527 
	C436.728485,610.718445 436.728485,605.654053 436.728485,600.102539 
	C435.668182,600.706726 435.181885,600.845459 434.899597,601.164612 
	C422.852448,614.785156 407.195404,619.306580 389.654938,619.412415 
	C378.101624,619.482178 366.702759,619.163635 356.056915,613.804443 
	C338.971985,605.203918 331.113037,589.105530 333.229889,570.103699 
	C335.991028,545.318604 352.262207,534.584045 373.819336,528.738098 
	C387.800018,524.946716 402.241516,523.795593 416.504364,521.623718 
	C419.447662,521.175537 422.378235,520.531067 425.248474,519.737610 
	C433.238312,517.528809 436.132385,512.904663 434.411469,504.848755 
	C432.983765,498.165710 429.441803,492.689514 423.239197,489.658203 
	C411.321411,483.833862 399.223206,483.834839 387.197662,489.605713 
	C380.617401,492.763458 377.407440,498.483398 375.823853,505.178680 
	C375.059814,508.409088 373.563873,509.472870 370.337921,509.418396 
	C360.698669,509.255585 351.054932,509.359894 341.580841,509.359894 
	C340.102417,506.903046 340.649506,504.783447 341.099030,502.695831 
	C345.346252,482.970978 357.285706,469.617126 375.966278,462.885101 
	C396.079651,455.636719 416.746124,455.402771 437.195709,461.722046 
	C456.783417,467.774994 469.701447,485.943939 470.402222,506.400909 
	C471.160919,528.549561 471.003784,550.706421 471.539490,572.847290 
	C471.841492,585.328857 472.284271,597.810608 472.346008,610.300537 
	C472.354950,612.107300 472.347260,613.914185 472.347260,615.451782 
	C470.072571,617.048340 468.014191,616.189209 465.626587,616.416016 
M409.356964,589.892395 
	C435.219452,581.190369 438.574951,563.486816 433.466370,541.370972 
	C429.321869,542.369751 425.199646,543.491882 421.022400,544.345032 
	C409.661896,546.664978 398.018921,547.410889 386.774872,550.380371 
	C378.257538,552.629761 372.315887,557.389709 370.598389,566.606812 
	C368.521423,577.753113 376.032593,590.581299 385.860352,591.534973 
	C393.456726,592.272217 401.134583,592.492432 409.356964,589.892395 
z"/>
<path fill="#000000" opacity="1.000000" stroke="none" 
	d="
M669.983398,457.652100 
	C679.358154,457.484375 688.015991,458.817963 696.485229,461.481323 
	C716.764832,467.858704 729.808838,485.850342 730.420288,507.089661 
	C731.407104,541.371582 732.339417,575.650146 732.335754,609.948669 
	C732.335510,611.904419 732.335693,613.860168 732.335693,616.110474 
	C720.308533,616.110474 708.902893,616.110474 697.247192,616.110474 
	C695.988098,610.947083 697.083801,605.773743 696.323975,599.852539 
	C689.768677,607.672180 682.177185,613.063843 672.965088,615.835449 
	C656.661926,620.740479 640.160645,621.051147 623.772400,616.652771 
	C607.378174,612.252808 592.890442,598.066406 593.500610,576.578064 
	C594.159668,553.366516 603.242554,539.796021 625.210571,531.755676 
	C639.685669,526.457703 654.893494,524.824280 669.996094,522.636963 
	C674.262573,522.019104 678.537231,521.422180 682.771118,520.620544 
	C693.918579,518.509949 697.669434,511.803925 693.748718,500.986176 
	C691.845032,495.733765 688.163757,491.827087 683.236206,489.450470 
	C671.960938,484.012329 660.418457,483.938782 648.985596,488.968567 
	C642.146362,491.977386 637.980042,497.463287 636.281677,504.697510 
	C635.480347,508.110687 633.910217,509.565979 630.133057,509.452423 
	C620.533997,509.163727 610.920471,509.356415 600.668396,509.356415 
	C601.916748,497.857788 605.438477,488.269257 612.125916,479.864624 
	C622.864197,466.368927 637.362122,460.378021 654.070435,458.586334 
	C659.207947,458.035431 664.321899,457.497467 669.983398,457.652100 
M668.664062,546.363281 
	C661.159973,547.676208 653.576660,548.539917 646.197266,550.551331 
	C637.461243,552.932556 632.337830,558.458984 630.622681,567.404907 
	C628.215820,579.958130 636.906372,591.407898 649.513000,591.835388 
	C653.660645,591.976074 657.911255,592.252197 661.959839,591.559875 
	C675.242554,589.288330 687.007080,584.037842 692.952576,571.003540 
	C697.302063,561.468079 695.047913,551.296448 694.290771,540.744751 
	C685.903076,543.954712 677.701233,545.033752 668.664062,546.363281 
z"/>
<path fill="#000000" opacity="1.000000" stroke="none" 
	d="
M587.556213,460.451965 
	C588.896240,471.095398 588.087463,481.417236 588.283875,491.726379 
	C588.336853,494.507385 586.853638,494.854797 584.368530,494.558899 
	C577.797485,493.776337 571.305359,492.731049 564.556458,494.131287 
	C547.770569,497.613953 536.424377,510.779999 536.361206,527.976257 
	C536.260254,555.456116 536.347656,582.936707 536.341797,610.416992 
	C536.340332,617.340759 536.316589,617.348694 529.602661,617.353516 
	C521.275330,617.359497 512.945068,617.221863 504.621918,617.408752 
	C501.040344,617.489136 499.637329,616.415833 499.584717,612.623352 
	C498.907837,563.834534 499.149017,515.043579 499.033173,466.253510 
	C499.023041,461.994537 500.438324,460.432922 504.851837,460.564728 
	C514.807678,460.862030 524.778503,460.658081 534.853516,460.658081 
	C536.791687,466.894867 534.589661,473.382904 536.926819,480.228912 
	C548.961914,460.841492 567.173645,458.076935 587.556213,460.451965 
z"/>
<path fill="#000000" opacity="1.000000" stroke="none" 
	d="
M176.723206,427.693481 
	C165.163727,449.960205 159.923492,473.862152 154.353577,497.650696 
	C149.747498,517.322876 142.857117,536.175476 134.573441,554.576111 
	C126.291145,572.973633 112.615616,586.548218 96.376396,597.814941 
	C84.415253,606.113586 71.468330,612.575317 57.631031,617.168945 
	C56.029366,617.700562 54.352711,619.028137 52.530144,617.542175 
	C52.505497,615.703735 53.965458,614.917053 55.070698,614.032593 
	C90.830132,585.413696 109.727402,547.072632 119.787384,503.326569 
	C124.699966,481.964020 130.236099,460.710938 139.627350,440.684723 
	C153.032730,412.098633 175.157166,393.867065 205.058640,384.647278 
	C206.084442,384.330994 207.168335,383.450073 209.211365,384.949249 
	C195.606445,397.029755 184.693832,411.057495 176.723206,427.693481 
z"/>
</svg>